HIERARCHY
ROOT Hips
{
	OFFSET 50.819599 -12.174116 100.481003
	CHANNELS 6 Xposition Yposition Zposition Xrotation Yrotation Zrotation
	JOINT spine
	{
		OFFSET 0.000000 -0.507026 8.817047
		CHANNELS 3 Xrotation Yrotation Zrotation
		JOINT spine1
		{
			OFFSET 0.000000 -0.000002 10.776596
			CHANNELS 3 Xrotation Yrotation Zrotation
			JOINT spine2
			{
				OFFSET 0.000000 -0.000001 10.325897
				CHANNELS 3 Xrotation Yrotation Zrotation
				JOINT Neck
				{
					OFFSET 0.000000 -1.263955 26.511002
					CHANNELS 3 Xrotation Yrotation Zrotation
					JOINT Head
					{
						OFFSET 0.000000 -0.000001 8.009659
						CHANNELS 3 Xrotation Yrotation Zrotation
						End Site
						{
							OFFSET 0.000000 6.393857 19.387894
						}
					}
				}
				JOINT RightShoulder
				{
					OFFSET -4.347950 0.605420 11.151199
					CHANNELS 3 Xrotation Yrotation Zrotation
					JOINT RightArm
					{
						OFFSET 0.000000 -0.000003 14.625793
						CHANNELS 3 Xrotation Yrotation Zrotation
						JOINT RightArmRoll
						{
							OFFSET 0.000000 -0.000001 7.383408
							CHANNELS 3 Xrotation Yrotation Zrotation
							JOINT RightForeArm
							{
								OFFSET 0.000000 -0.000004 21.505203
								CHANNELS 3 Xrotation Yrotation Zrotation
								JOINT RightForeArmRoll
								{
									OFFSET 0.000000 -0.000001 8.285324
									CHANNELS 3 Xrotation Yrotation Zrotation
									JOINT RightHand
									{
										OFFSET 0.000000 -0.000003 16.626801
										CHANNELS 3 Xrotation Yrotation Zrotation
										End Site
										{
											OFFSET 0.000000 0.000000 0.100006
										}
									}
								}
							}
						}
					}
				}
				JOINT LeftShoulder
				{
					OFFSET 4.347950 0.605420 11.151199
					CHANNELS 3 Xrotation Yrotation Zrotation
					JOINT LeftArm
					{
						OFFSET 0.000000 -0.000003 14.625793
						CHANNELS 3 Xrotation Yrotation Zrotation
						JOINT LeftArmRoll
						{
							OFFSET 0.000000 -0.000001 7.383408
							CHANNELS 3 Xrotation Yrotation Zrotation
							JOINT LeftForeArm
							{
								OFFSET 0.000000 -0.000004 21.505203
								CHANNELS 3 Xrotation Yrotation Zrotation
								JOINT LeftForeArmRoll
								{
									OFFSET 0.000000 -0.000001 8.285324
									CHANNELS 3 Xrotation Yrotation Zrotation
									JOINT LeftHand
									{
										OFFSET 0.000000 -0.000003 16.626801
										CHANNELS 3 Xrotation Yrotation Zrotation
										End Site
										{
											OFFSET 0.000000 0.000000 0.100006
										}
									}
								}
							}
						}
					}
				}
			}
		}
	}
	JOINT RightUpLeg
	{
		OFFSET -7.815102 1.202170 -1.433090
		CHANNELS 3 Xrotation Yrotation Zrotation
		JOINT RightUpLegRoll
		{
			OFFSET 0.000000 -0.000003 19.495895
			CHANNELS 3 Xrotation Yrotation Zrotation
			JOINT RightLeg
			{
				OFFSET 0.000000 0.000004 -24.142700
				CHANNELS 3 Xrotation Yrotation Zrotation
				JOINT RightLegRoll
				{
					OFFSET 0.000000 -0.000004 24.221703
					CHANNELS 3 Xrotation Yrotation Zrotation
					JOINT RightFoot
					{
						OFFSET 0.000000 -0.000004 20.160500
						CHANNELS 3 Xrotation Yrotation Zrotation
						JOINT RightToeBase
						{
							OFFSET 0.000000 -0.000003 16.853195
							CHANNELS 3 Xrotation Yrotation Zrotation
							End Site
							{
								OFFSET 0.007145 0.940779 8.161865
							}
						}
					}
				}
			}
		}
	}
	JOINT LeftUpLeg
	{
		OFFSET 7.815102 1.202170 -1.433090
		CHANNELS 3 Xrotation Yrotation Zrotation
		JOINT LeftUpLegRoll
		{
			OFFSET 0.000000 -0.000003 19.496002
			CHANNELS 3 Xrotation Yrotation Zrotation
			JOINT LeftLeg
			{
				OFFSET 0.000000 -0.000004 24.142593
				CHANNELS 3 Xrotation Yrotation Zrotation
				JOINT LeftLegRoll
				{
					OFFSET 0.000000 -0.000005 24.445602
					CHANNELS 3 Xrotation Yrotation Zrotation
					JOINT LeftFoot
					{
						OFFSET 0.000000 -0.000003 19.936600
						CHANNELS 3 Xrotation Yrotation Zrotation
						JOINT LeftToeBase
						{
							OFFSET 0.000000 -0.000003 16.853195
							CHANNELS 3 Xrotation Yrotation Zrotation
							End Site
							{
								OFFSET -0.032013 0.940779 8.161865
							}
						}
					}
				}
			}
		}
	}
}
MOTION
Frames: 8
Frame Time: 0.041667
60.003704 -12.713721 99.768494 2.845827 1.404997 56.599964 -2.256516 0.631579 1.002561 -0.520927 1.233308 2.023744 1.123891 1.257468 2.008774 -3.028326 39.618464 6.217312 3.224578 -20.708058 2.762088 5.019902 -20.367259 13.577244 95.455445 -3.630152 144.227326 0.000021 0.000013 0.000006 66.540878 3.976050 -0.364455 -0.000000 0.000018 -3.004061 -4.999655 -7.998887 -0.000153 -48.362835 66.213821 55.593433 428.811188 82.710927 -436.625416 -0.000000 -0.000001 0.000000 14.649912 15.997937 -1.772244 0.000013 -0.000004 2.999989 -4.999721 7.999276 0.000057 3.391919 -174.957809 2.825877 -179.999991 0.000005 -1.187995 164.396192 -2.181602 -0.725099 0.000001 0.000000 0.663505 76.515502 6.592523 2.465222 32.308045 -7.022905 3.229146 -14.489732 180.264333 4.056961 -0.000005 -0.000005 -0.965485 -15.211955 3.048892 0.931496 -0.000005 0.000001 -0.257004 72.257575 -6.834603 -2.047489 25.456959 7.347555 -0.000001 
60.048809 -12.696619 99.764488 2.828595 1.415294 56.709876 -2.256906 0.631365 1.001600 -0.521741 1.232959 2.021882 1.123070 1.257088 2.006922 -2.982758 39.680619 6.175578 3.207530 -20.803651 2.736468 5.047890 -20.259470 13.646229 95.627785 -3.410727 144.458159 0.000019 0.000013 0.000006 65.878220 4.215182 -0.501536 -0.000001 0.000018 -3.004058 -4.999652 -7.998886 -0.000155 -48.470499 66.239741 55.709144 429.445685 82.714950 -437.398867 0.000000 0.000000 0.000000 14.711497 15.853856 -1.747027 0.000012 -0.000004 2.999990 -4.999722 7.999276 0.000058 3.439889 -174.994993 2.810610 -179.999991 0.000006 -1.188989 164.423991 -2.174199 -0.723894 -0.000001 -0.000002 0.661533 76.475982 6.593190 2.465908 32.390485 -7.020022 3.224950 -14.483023 180.252722 4.046659 -0.000004 -0.000005 -0.965525 -15.210157 3.056341 0.931929 -0.000005 0.000001 -0.256953 72.257616 -6.834419 -2.047858 25.456964 7.347553 -0.000001 
60.084309 -12.719416 99.771484 2.809012 1.425726 56.821454 -2.257437 0.630767 1.000243 -0.522846 1.231878 2.019239 1.121970 1.255979 2.004303 -2.927734 39.735913 6.128863 3.186888 -20.896930 2.709514 5.069295 -20.155659 13.705060 95.800199 -3.194153 144.680783 0.000018 0.000015 0.000005 65.228259 4.456468 -0.637155 0.000002 0.000018 -3.004059 -4.999650 -7.998887 -0.000153 -48.568744 66.267807 55.813891 430.080893 82.724649 -438.173465 0.000000 0.000000 -0.000000 14.775147 15.709502 -1.722184 0.000016 -0.000004 2.999990 -4.999720 7.999276 0.000057 3.489637 -175.035181 2.792997 -179.999991 0.000005 -1.188996 164.451721 -2.164856 -0.724164 0.000001 0.000000 0.659559 76.436367 6.593817 2.466595 32.475156 -7.017154 3.220205 -14.476705 180.236261 4.033363 -0.000004 -0.000004 -0.965557 -15.209983 3.065116 0.932562 -0.000005 0.000001 -0.256874 72.257220 -6.834214 -2.048152 25.456959 7.347555 -0.000002 
60.112106 -12.719015 99.770691 2.787349 1.436298 56.934278 -2.258066 0.629850 0.998550 -0.524173 1.230188 2.015945 1.120649 1.254250 2.001028 -2.865005 39.784653 6.077994 3.163432 -20.988065 2.681536 5.084928 -20.055606 13.754834 95.972586 -2.981305 144.892286 0.000020 0.000016 0.000005 64.590046 4.698513 -0.770771 0.000001 0.000018 -3.004062 -4.999658 -7.998888 -0.000154 -48.658807 66.297675 55.909121 430.719843 82.739272 -438.951642 -0.000000 0.000002 -0.000000 14.840475 15.565289 -1.697690 0.000013 -0.000004 2.999991 -4.999719 7.999278 0.000057 3.540814 -175.079359 2.773285 -179.999991 0.000005 -1.190004 164.479438 -2.155510 -0.723452 -0.000001 -0.000001 0.657594 76.396431 6.594470 2.467411 32.561728 -7.014299 3.214986 -14.470584 180.215935 4.017485 -0.000004 -0.000005 -0.965591 -15.211227 3.074885 0.933359 -0.000005 0.000000 -0.256775 72.256298 -6.834036 -2.048479 25.456964 7.347551 -0.000001 
60.147209 -12.726618 99.771492 2.763884 1.446996 57.048158 -2.258786 0.628671 0.996586 -0.525653 1.227988 2.012105 1.119167 1.252001 1.997226 -2.796335 39.827417 6.023887 3.137945 -21.077532 2.652857 5.095602 -19.959590 13.796681 96.144912 -2.772721 145.092452 0.000019 0.000015 0.000003 63.962433 4.940081 -0.901688 0.000001 0.000019 -3.004059 -4.999654 -7.998888 -0.000154 -48.740664 66.328807 55.994943 431.365733 82.758103 -439.735939 0.000000 -0.000000 -0.000000 14.907202 15.421729 -1.673608 0.000012 -0.000004 2.999990 -4.999721 7.999276 0.000056 3.593114 -175.126556 2.751852 -179.999991 0.000005 -1.191001 164.506773 -2.144224 -0.723216 -0.000001 -0.000000 0.655625 76.356406 6.595083 2.468220 32.650145 -7.011459 3.209377 -14.464664 180.191728 3.999702 -0.000004 -0.000005 -0.965629 -15.213686 3.085331 0.934291 -0.000005 0.000001 -0.256674 72.255041 -6.833843 -2.048825 25.456959 7.347553 -0.000001 
60.170105 -12.739412 99.775688 2.738871 1.457811 57.162765 -2.259537 0.627292 0.994407 -0.527217 1.225398 2.007835 1.117605 1.249362 1.992989 -2.723478 39.864638 5.967396 3.111215 -21.165428 2.623825 5.102132 -19.867682 13.831718 96.316828 -2.569361 145.276812 0.000020 0.000015 0.000005 63.344219 5.179875 -1.029427 0.000002 0.000019 -3.004059 -4.999653 -7.998887 -0.000156 -48.815502 66.360718 56.072708 432.019519 82.780315 -440.526738 0.000000 0.000000 0.000000 14.974742 15.279435 -1.649923 0.000012 -0.000004 2.999990 -4.999723 7.999275 0.000057 3.646189 -175.175733 2.729084 -179.999991 0.000006 -1.192000 164.533820 -2.132943 -0.723012 0.000001 0.000000 0.653664 76.316060 6.595702 2.469151 32.740071 -7.008642 3.203437 -14.458841 180.164626 3.980440 -0.000003 -0.000004 -0.965659 -15.217147 3.096149 0.935326 -0.000005 0.000001 -0.256568 72.253573 -6.833657 -2.049085 25.456960 7.347552 0.000001 
60.191505 -12.744716 99.776993 2.712586 1.468765 57.278127 -2.260304 0.625772 0.992070 -0.528796 1.222528 2.003255 1.116024 1.246433 1.988441 -2.648164 39.896566 5.909372 3.084024 -21.252128 2.594755 5.105324 -19.779763 13.861027 96.488484 -2.371981 145.444603 0.000020 0.000014 0.000004 62.734222 5.416555 -1.153494 0.000002 0.000018 -3.004061 -4.999655 -7.998887 -0.000157 -48.883876 66.392922 56.143151 432.684725 82.805211 -441.326881 0.000000 0.000000 0.000000 15.042827 15.138821 -1.626644 0.000012 -0.000004 2.999991 -4.999720 7.999276 0.000057 3.699716 -175.226932 2.705307 -179.999991 0.000005 -1.192000 164.560444 -2.121642 -0.722815 0.000002 -0.000002 0.651710 76.275516 6.596323 2.469896 32.831405 -7.005818 3.197265 -14.453022 180.136540 3.959888 -0.000004 -0.000005 -0.965691 -15.221411 3.107001 0.936438 -0.000005 0.000001 -0.256470 72.251906 -6.833506 -2.049365 25.456960 7.347552 -0.000000 
60.218605 -12.758915 99.776093 2.685288 1.479846 57.393704 -2.261044 0.624176 0.989641 -0.530323 1.219477 1.998467 1.114502 1.243324 1.983703 -2.572196 39.923880 5.850734 3.057172 -21.337823 2.566000 5.105956 -19.696102 13.885610 96.659813 -2.181333 145.594129 0.000021 0.000014 0.000004 62.131301 5.648779 -1.273293 -0.000001 0.000017 -3.004060 -4.999657 -7.998887 -0.000153 -48.946707 66.424997 56.207416 433.361815 82.831924 -442.136259 -0.000000 -0.000001 0.000000 15.111054 15.000306 -1.603791 0.000013 -0.000004 2.999990 -4.999720 7.999276 0.000057 3.753368 -175.279115 2.680909 -179.999991 0.000005 -1.192998 164.586290 -2.109379 -0.722413 0.000001 -0.000001 0.649758 76.234651 6.596911 2.470858 32.923967 -7.003008 3.190928 -14.447105 180.105572 3.939206 -0.000004 -0.000006 -0.965720 -15.226179 3.117577 0.937572 -0.000005 0.000001 -0.256380 72.250322 -6.833293 -2.049731 25.456965 7.347556 -0.000002 
